<svg xmlns="http://www.w3.org/2000/svg" viewBox="0 0 95.0 18.5">
  <g transform="scale(0.015200, -0.015200) translate(0, -960)" fill="#0a0a0a">
  <path d="M42 0V700H227V450H472V700H657V0H472V290H227V0Z" transform="translate(0.0, 0)"/>
  <path d="M107 -154 204 59 -14 560H183L301 272L418 560H600L296 -154Z" transform="translate(689.0, 0)"/>
  <path d="M34 -154V560H216V477Q242 523 287.5 547.5Q333 572 391 572Q464 572 521.5 534.0Q579 496 612.5 430.0Q646 364 646 281Q646 197 612.0 131.0Q578 65 520.5 27.0Q463 -11 390 -11Q333 -11 287.5 11.5Q242 34 216 77V-154ZM339 139Q395 139 429.0 178.5Q463 218 463 280Q463 342 429.0 381.0Q395 420 339 420Q299 420 271.5 400.5Q244 381 230.0 352.0Q216 323 216 294V265Q216 236 230.0 207.0Q244 178 271.5 158.5Q299 139 339 139Z" transform="translate(1264.0, 0)"/>
  <path d="M331 -15Q236 -15 165.0 22.5Q94 60 54.5 126.0Q15 192 15 277Q15 363 53.5 430.0Q92 497 158.5 536.0Q225 575 310 575Q389 575 448.5 539.5Q508 504 542.0 441.0Q576 378 576 294Q576 276 574.5 259.0Q573 242 572 228H191Q203 178 246.5 151.0Q290 124 360 124Q452 124 515 165V29Q484 9 434.5 -3.0Q385 -15 331 -15ZM191 345H413Q411 392 382.5 417.5Q354 443 308 443Q263 443 232.0 417.5Q201 392 191 345Z" transform="translate(1915.0, 0)"/>
  <path d="M34 0V560H215V455Q233 508 267.0 537.5Q301 567 346 567Q372 567 387 558V385Q368 396 336 396Q280 396 248.0 358.5Q216 321 216 256V0Z" transform="translate(2494.0, 0)"/>
  <path d="M42 0V700H442V547H227V419H431V273H227V0Z" transform="translate(2882.0, 0)"/>
  <path d="M34 0V560H215V455Q233 508 267.0 537.5Q301 567 346 567Q372 567 387 558V385Q368 396 336 396Q280 396 248.0 358.5Q216 321 216 256V0Z" transform="translate(3331.0, 0)"/>
  <path d="M270 -11Q197 -11 139.5 27.0Q82 65 48.5 130.5Q15 196 15 279Q15 363 48.5 429.0Q82 495 140.0 533.5Q198 572 271 572Q327 572 372.0 549.0Q417 526 444 482V560H626V0H444V84Q417 38 372.0 13.5Q327 -11 270 -11ZM321 139Q362 139 389.0 158.5Q416 178 430.0 207.5Q444 237 444 266V295Q444 324 430.0 353.0Q416 382 389.0 401.0Q362 420 321 420Q266 420 231.5 381.5Q197 343 197 280Q197 218 231.5 178.5Q266 139 321 139Z" transform="translate(3719.0, 0)"/>
  <path d="M34 0V560H216V486Q241 527 282.5 549.5Q324 572 379 572Q435 572 475.0 547.0Q515 522 538 477Q564 521 609.0 546.5Q654 572 712 572Q800 572 850.0 514.0Q900 456 900 358V0H718V322Q718 420 647 420Q608 420 583.0 390.0Q558 360 558 309V0H376V322Q376 420 306 420Q266 420 241.0 390.0Q216 360 216 309V0Z" transform="translate(4369.0, 0)"/>
  <path d="M331 -15Q236 -15 165.0 22.5Q94 60 54.5 126.0Q15 192 15 277Q15 363 53.5 430.0Q92 497 158.5 536.0Q225 575 310 575Q389 575 448.5 539.5Q508 504 542.0 441.0Q576 378 576 294Q576 276 574.5 259.0Q573 242 572 228H191Q203 178 246.5 151.0Q290 124 360 124Q452 124 515 165V29Q484 9 434.5 -3.0Q385 -15 331 -15ZM191 345H413Q411 392 382.5 417.5Q354 443 308 443Q263 443 232.0 417.5Q201 392 191 345Z" transform="translate(5290.0, 0)"/>
  <path d="M136 -12Q63 -12 12 15V151Q46 127 87 127Q117 127 134.5 141.0Q152 155 152 178Q152 191 146.0 205.0Q140 219 125 237L83 288Q62 314 52.5 342.5Q43 371 43 400Q43 451 70.0 490.0Q97 529 143.5 550.5Q190 572 250 572Q318 572 364 548V412Q351 422 332.0 428.0Q313 434 294 434Q265 434 247.5 420.5Q230 407 230 385Q230 360 259 325L300 275Q342 221 342 161Q342 110 315.0 71.0Q288 32 241.5 10.0Q195 -12 136 -12Z" transform="translate(5869.0, 0)"/>
  </g>
</svg>